# xmcd
#
# Track frame offsets: 
#        150
#        19782
#        34367
#        47645
#        63410
#        84062
#        98250
#        112632
#        132555
#        147357
#        164400
#        181347
#        196130
#        211702
#        229777
#        252330
#        273720
#
# Disc length: 3935 seconds
#
# Revision: 2
# Processed by: cddbd v1.5.2PL0 Copyright (c) Steve Scherf et al.
# Submitted via: ExactAudioCopy v1.0b4
#
DISCID=e00f5d11
DTITLE=Clifton Chenier - Out West
DYEAR=1991
DGENRE=Cajun, Zydeco, Blues
TTITLE0=I'm on the Wonder
TTITLE1=The Hucklebuck
TTITLE2=Je Marche le Plancher (You Know It Ain't Fair)
TTITLE3=Calinda
TTITLE4=You're the One for Me
TTITLE5=You're Fussin' Too Much
TTITLE6=Just Like a Woman
TTITLE7=All Your Love
TTITLE8=C. C. Special (Take #2)
TTITLE9=I'm a Hog for You Baby
TTITLE10=C. C. Special (Take #1)
TTITLE11=Ti Na Na
TTITLE12=Zydeco Cha Cha
TTITLE13=Crawfish Jambalaya
TTITLE14=Ma Negresse Est Gone 
TTITLE15=Breaux Bridge Waltz
TTITLE16=Louisiana Two-Step
EXTD=
EXTT0=
EXTT1=
EXTT2=
EXTT3=
EXTT4=
EXTT5=
EXTT6=
EXTT7=
EXTT8=
EXTT9=
EXTT10=
EXTT11=
EXTT12=
EXTT13=
EXTT14=
EXTT15=
EXTT16=
PLAYORDER=
